<svg class="icon" viewBox="0 0 1024 1024" xmlns="http://www.w3.org/2000/svg" width="128" height="128"><defs><style/></defs><path d="M1020.186 443.046c-4.014-21.634-25.495-43.657-47.777-48.53l-16.663-3.702c-39.144-11.5-73.873-36.641-95.956-73.671-22.081-37.225-27.3-79.518-17.665-118.302l5.22-15.2c6.625-21.05-2.007-50.089-19.473-64.512 0 0-15.658-12.862-59.822-37.615-44.164-24.556-63.235-31.378-63.235-31.378-21.48-7.6-51.591-.39-67.249 15.787l-11.643 12.083c-29.71 27.286-69.659 43.852-113.823 43.852-44.164 0-84.513-16.76-114.224-44.24l-11.241-11.695c-15.458-16.177-45.77-23.388-67.25-15.788 0 0-19.271 6.822-63.435 31.378-44.164 24.947-59.622 37.81-59.622 37.81-17.464 14.228-26.096 43.072-19.472 64.316l4.818 15.397c9.435 38.784 4.416 80.88-17.665 118.106-22.083 37.225-57.213 62.561-96.56 73.865l-16.059 3.508C29.31 399.39 7.63 421.217 3.615 443.045c0 0-3.614 19.49-3.614 68.993 0 49.504 3.614 68.993 3.614 68.993 4.014 21.829 25.494 43.657 47.776 48.53l15.658 3.508c39.347 11.303 74.678 36.64 96.76 74.06 22.082 37.225 27.301 79.517 17.665 118.301l-4.617 15.007c-6.625 21.05 2.007 50.088 19.472 64.51 0 0 15.658 12.863 59.823 37.615 44.164 24.751 63.235 31.378 63.235 31.378 21.479 7.6 51.59.39 67.249-15.786l11.04-11.5c29.912-27.48 70.06-44.24 114.425-44.24 44.365 0 84.715 16.956 114.425 44.436l11.041 11.5c15.457 16.174 45.77 23.386 67.25 15.785 0 0 19.27-6.822 63.435-31.378 44.164-24.751 59.621-37.615 59.621-37.615 17.465-14.227 26.097-43.267 19.473-64.51l-4.818-15.592c-9.435-38.59-4.417-80.686 17.665-117.716 22.082-37.226 57.413-62.757 96.76-74.06l15.657-3.51c22.082-4.871 43.762-26.7 47.777-48.528 0 0 3.614-19.49 3.614-68.993-.2-49.698-3.814-69.187-3.814-69.187zM512.1 710.246c-112.617 0-204.158-88.677-204.158-198.208 0-109.336 91.34-198.013 204.158-198.013 112.618 0 204.158 88.677 204.158 198.208-.2 109.335-91.54 198.013-204.158 198.013z"/></svg>